# xmcd CD database file
#
# Track frame offsets:
#	150
#	15502
#	31277
#	41241
#	59359
#	76097
#	93312
#	97132
#	116390
#	136907
#
# Disc length: 2077 seconds
#
# Revision: 1
# Processed by: cddbd v1.5.1PL0 Copyright (c) Steve Scherf et al.
# Submitted via: CDex 1.51
#
DISCID=77081b0a
DTITLE=Son Of Dave - 02
DYEAR=2003
DGENRE=Blues
TTITLE0=Leave without Running
TTITLE1=Goddamn
TTITLE2=Gonna Get You Back
TTITLE3=San Francisco
TTITLE4=I Got What You Need
TTITLE5=Crossroad Blues
TTITLE6=Crickets
TTITLE7=Life Is So Easy Now
TTITLE8=Rollin' And Tumblin'
TTITLE9=Mannish Boy
EXTD=YEAR: 2003
EXTT0=
EXTT1=
EXTT2=
EXTT3=
EXTT4=
EXTT5=
EXTT6=
EXTT7=
EXTT8=
EXTT9=
PLAYORDER=
